<svg id="Layer_1" data-name="Layer 1" xmlns="http://www.w3.org/2000/svg" viewBox="0 0 490 140.19"><defs><style>.cls-1{fill:#010101;}.cls-2{fill:#23b355;}.cls-3{fill:#02abaf;}.cls-4{fill:#4998d3;}.cls-5{fill:#8a288a;}.cls-6{fill:#ed1557;}.cls-7{fill:#f05223;}.cls-8{fill:#f7aa1b;}.cls-9{fill:#a6ce38;}</style></defs><path class="cls-1" d="M16.53,0V52.2A35.25,35.25,0,0,1,30.3,40.85,42.2,42.2,0,0,1,48.37,37a46.58,46.58,0,0,1,23.76,6.08,42.92,42.92,0,0,1,16.44,17Q94.51,71,94.51,85.27t-5.94,25.29a42.77,42.77,0,0,1-16.44,17.07,46.58,46.58,0,0,1-23.76,6.08c-6.77,0-30.12-1.27-32.33-1.27s-16,.2-16,.2V2.53C.84,2.28,2.05,2,3.51,1.64a63.67,63.67,0,0,1,6.37-1c.64-.08,2.6-.32,5.18-.53ZM62.75,114.49a29.76,29.76,0,0,0,11-11.8,36.56,36.56,0,0,0,4-17.42,36.57,36.57,0,0,0-4-17.43,29.13,29.13,0,0,0-11-11.71A30.44,30.44,0,0,0,47,52a30.59,30.59,0,0,0-15.67,4.11,28.34,28.34,0,0,0-11,11.71,37.13,37.13,0,0,0-4,17.43,37.12,37.12,0,0,0,4,17.42,29,29,0,0,0,11,11.8A30.08,30.08,0,0,0,47,118.69,29.93,29.93,0,0,0,62.75,114.49Z"/><path class="cls-1" d="M390.12,73.66a45.29,45.29,0,0,0-4.66-13.39A43.84,43.84,0,0,0,376.11,48a42.68,42.68,0,0,0-6.69-5,44.51,44.51,0,0,0-23.37-6.17A45.41,45.41,0,0,0,322.5,43a43.46,43.46,0,0,0-16.39,17.25,51.58,51.58,0,0,0-5.95,24.84,50.89,50.89,0,0,0,6.12,25,43.2,43.2,0,0,0,17.34,17.24,56.37,56.37,0,0,0,46.32,2.24,40.17,40.17,0,0,0,15.44-11.44l-3.61-4.38h0a8.62,8.62,0,0,0-6.48-2.92,8.44,8.44,0,0,0-4.9,1.57l-.06,0q-8.55,6.08-20.48,6.07-13.45,0-22.51-7.6t-10.61-20.1h54.9a67.63,67.63,0,0,0,7.72-.39,14.15,14.15,0,0,0,6.57-3.4,14,14,0,0,0,4.36-7.5A15,15,0,0,0,390.12,73.66Zm-16.57-.35a6.85,6.85,0,0,1-2.75,4.13,6.28,6.28,0,0,1-2.48,1c-.26,0-3.57.06-3.57.06h-48q1.38-12.15,9.4-19.65t19.93-7.51a29.34,29.34,0,0,1,13.54,3.06A28.9,28.9,0,0,1,366,58.93a27.77,27.77,0,0,1,5.45,6.94C373,68.76,374.11,70.81,373.55,73.31Z"/><path class="cls-1" d="M213,2.53c.84-.25,2.05-.58,3.51-.89a63.67,63.67,0,0,1,6.37-1c.64-.08,2.6-.32,5.18-.53L229.54,0V85.09L279.29,37.9h20L260.87,77,303,132.64H282.73L248.47,88.48S232.52,102,230.81,106.77a18.9,18.9,0,0,0-1.27,6.37c0,8,0,19.5,0,19.5H213Z"/><path class="cls-1" d="M403.41,2.53c.84-.25,2-.58,3.51-.89a63.21,63.21,0,0,1,6.37-1c.64-.08,2.6-.32,5.18-.53L419.93,0V51.3a34.26,34.26,0,0,1,13.52-10.54A44.91,44.91,0,0,1,452.13,37q17.39,0,27.63,10.46T490,78.12v54.52H473.47V80.08q0-13.76-6.37-20.73t-18.24-7q-13.44,0-21.18,8.13t-7.75,23.33v48.8H403.41Z"/><path class="cls-2" d="M171.65,43A67.84,67.84,0,0,0,167,37.57c-5.1-5.42-7.82-6.49-9.43-6.82a12.85,12.85,0,0,0-3-.22c-4.3.2-7.26,2.48-9.86,4.48a31.93,31.93,0,0,0-6.79,7.21.42.42,0,0,0-.07.24V68.61a.43.43,0,0,0,.23.38.41.41,0,0,0,.19,0,.44.44,0,0,0,.25-.08l33.06-25.32A.42.42,0,0,0,171.65,43Z"/><path class="cls-3" d="M195.07,49.47a11.91,11.91,0,0,0-2-2.3c-3.18-2.9-6.88-3.38-10.14-3.81a31.64,31.64,0,0,0-9.89.3.43.43,0,0,0-.22.12l-18.5,18.49a.43.43,0,0,0-.1.43.43.43,0,0,0,.34.28l41.28,5.48h.06a.4.4,0,0,0,.41-.36,66.5,66.5,0,0,0,.6-7.15C197.15,53.51,196,50.83,195.07,49.47Z"/><path class="cls-4" d="M208.56,86.17c-.2-4.3-2.47-7.25-4.48-9.86a31.46,31.46,0,0,0-7.21-6.78.4.4,0,0,0-.23-.08H170.48a.4.4,0,0,0-.37.24.38.38,0,0,0,0,.43l25.32,33.07a.42.42,0,0,0,.33.16.38.38,0,0,0,.25-.09,69.78,69.78,0,0,0,5.48-4.63c5.42-5.1,6.48-7.82,6.82-9.42A13.2,13.2,0,0,0,208.56,86.17Z"/><path class="cls-5" d="M195.43,104.66a.39.39,0,0,0-.11-.22L176.82,86a.39.39,0,0,0-.43-.1.41.41,0,0,0-.28.34l-5.47,41.28a.42.42,0,0,0,.36.47,69.17,69.17,0,0,0,7.14.59l1.81,0c6.08,0,8.43-1,9.68-1.87a12.71,12.71,0,0,0,2.3-2c2.9-3.19,3.38-6.88,3.8-10.14A31.7,31.7,0,0,0,195.43,104.66Z"/><path class="cls-6" d="M169.41,101.72a.44.44,0,0,0-.44,0l-33.06,25.32a.43.43,0,0,0-.08.59,69.62,69.62,0,0,0,4.63,5.47c5.1,5.42,7.83,6.49,9.43,6.82a12.47,12.47,0,0,0,2.42.23h.61c4.31-.2,7.26-2.48,9.86-4.48a31.71,31.71,0,0,0,6.79-7.21.42.42,0,0,0,.07-.24V102.09A.41.41,0,0,0,169.41,101.72Z"/><path class="cls-7" d="M153.25,108a.4.4,0,0,0-.34-.28l-41.28-5.48a.42.42,0,0,0-.47.36c-.32,2.38-.52,4.78-.6,7.14-.22,7.44,1,10.12,1.85,11.49a12.3,12.3,0,0,0,2,2.3c3.18,2.9,6.88,3.38,10.14,3.81a30.93,30.93,0,0,0,4,.25,32.21,32.21,0,0,0,5.92-.55.45.45,0,0,0,.21-.12l18.5-18.49A.43.43,0,0,0,153.25,108Z"/><path class="cls-8" d="M137.33,100.58,112,67.52a.44.44,0,0,0-.59-.08A70.07,70.07,0,0,0,106,72.08c-5.43,5.1-6.49,7.82-6.82,9.42a12.46,12.46,0,0,0-.22,3c.2,4.3,2.47,7.25,4.48,9.86a31.46,31.46,0,0,0,7.21,6.78.41.41,0,0,0,.24.08H137a.42.42,0,0,0,.33-.68Z"/><path class="cls-9" d="M136.49,42.77a69.36,69.36,0,0,0-7.15-.59c-7.44-.23-10.12.94-11.49,1.84a12.71,12.71,0,0,0-2.3,2c-2.9,3.18-3.38,6.88-3.8,10.14a31.7,31.7,0,0,0,.3,9.9.57.57,0,0,0,.11.22l18.5,18.49a.43.43,0,0,0,.3.13.31.31,0,0,0,.13,0,.41.41,0,0,0,.28-.34l5.47-41.28A.41.41,0,0,0,136.49,42.77Z"/></svg>